<?xml version="1.0" encoding="UTF-8"?><svg xmlns="http://www.w3.org/2000/svg" xmlns:xlink="http://www.w3.org/1999/xlink" fill-opacity="1" color-rendering="auto" color-interpolation="auto" text-rendering="auto" stroke="black" stroke-linecap="square" width="660" stroke-miterlimit="10" shape-rendering="auto" stroke-opacity="1" fill="black" stroke-dasharray="none" font-weight="normal" stroke-width="1" height="124" font-family="'Dialog'" font-style="normal" stroke-linejoin="miter" font-size="12px" stroke-dashoffset="0" image-rendering="auto">
  <!--Generated by ySVG 2.5-->
  <defs id="genericDefs"/>
  <g>
    <defs id="defs1">
      <clipPath clipPathUnits="userSpaceOnUse" id="clipPath1">
        <path d="M0 0 L660 0 L660 124 L0 124 L0 0 Z"/>
      </clipPath>
      <clipPath clipPathUnits="userSpaceOnUse" id="clipPath2">
        <path d="M280 293 L940 293 L940 417 L280 417 L280 293 Z"/>
      </clipPath>
    </defs>
    <g fill="white" text-rendering="geometricPrecision" shape-rendering="geometricPrecision" transform="translate(-280,-293)" stroke="white">
      <rect x="280" width="660" height="124" y="293" clip-path="url(#clipPath2)" stroke="none"/>
    </g>
    <g fill="rgb(255,153,204)" text-rendering="geometricPrecision" shape-rendering="geometricPrecision" transform="matrix(1,0,0,1,-280,-293)" stroke="rgb(255,153,204)">
      <path d="M791 333 L866.6 333 L875 354 L866.6 375 L791 375 L799.4 354 Z" fill-rule="evenodd" clip-path="url(#clipPath2)" stroke="none"/>
    </g>
    <g text-rendering="geometricPrecision" stroke-miterlimit="1.45" shape-rendering="geometricPrecision" transform="matrix(1,0,0,1,-280,-293)" stroke-linecap="butt">
      <path fill="none" d="M791 333 L866.6 333 L875 354 L866.6 375 L791 375 L799.4 354 Z" fill-rule="evenodd" clip-path="url(#clipPath2)"/>
      <text x="809.7178" xml:space="preserve" y="358.1543" clip-path="url(#clipPath2)" font-family="sans-serif" stroke="none">P(d,p,v)</text>
    </g>
    <g fill="rgb(255,153,204)" text-rendering="geometricPrecision" shape-rendering="geometricPrecision" transform="matrix(1,0,0,1,-280,-293)" stroke="rgb(255,153,204)">
      <rect x="883" width="42" height="42" y="333" clip-path="url(#clipPath2)" stroke="none"/>
    </g>
    <g text-rendering="geometricPrecision" stroke-miterlimit="1.45" shape-rendering="geometricPrecision" transform="matrix(1,0,0,1,-280,-293)" stroke-linecap="butt">
      <rect fill="none" x="883" width="42" height="42" y="333" clip-path="url(#clipPath2)"/>
      <text x="901.5332" xml:space="preserve" y="358.1543" clip-path="url(#clipPath2)" font-family="sans-serif" stroke="none">r</text>
    </g>
    <g fill="rgb(204,153,255)" text-rendering="geometricPrecision" shape-rendering="geometricPrecision" transform="matrix(1,0,0,1,-280,-293)" stroke="rgb(204,153,255)">
      <path d="M655 333 L728.8 333 L737 354 L728.8 375 L655 375 L663.2 354 Z" fill-rule="evenodd" clip-path="url(#clipPath2)" stroke="none"/>
    </g>
    <g text-rendering="geometricPrecision" stroke-miterlimit="1.45" shape-rendering="geometricPrecision" transform="matrix(1,0,0,1,-280,-293)" stroke-linecap="butt">
      <path fill="none" d="M655 333 L728.8 333 L737 354 L728.8 375 L655 375 L663.2 354 Z" fill-rule="evenodd" clip-path="url(#clipPath2)"/>
      <text x="683.9766" xml:space="preserve" y="358.1543" clip-path="url(#clipPath2)" font-family="sans-serif" stroke="none">E(x)</text>
    </g>
    <g fill="rgb(204,153,255)" text-rendering="geometricPrecision" shape-rendering="geometricPrecision" transform="matrix(1,0,0,1,-280,-293)" stroke="rgb(204,153,255)">
      <rect x="743" width="42" height="42" y="333" clip-path="url(#clipPath2)" stroke="none"/>
    </g>
    <g text-rendering="geometricPrecision" stroke-miterlimit="1.45" shape-rendering="geometricPrecision" transform="matrix(1,0,0,1,-280,-293)" stroke-linecap="butt">
      <rect fill="none" x="743" width="42" height="42" y="333" clip-path="url(#clipPath2)"/>
      <text x="760.4492" xml:space="preserve" y="358.1543" clip-path="url(#clipPath2)" font-family="sans-serif" stroke="none">v</text>
    </g>
    <g fill="rgb(153,204,255)" text-rendering="geometricPrecision" shape-rendering="geometricPrecision" transform="matrix(1,0,0,1,-280,-293)" stroke="rgb(153,204,255)">
      <path d="M519 333 L592.8 333 L601 354 L592.8 375 L519 375 L527.2 354 Z" fill-rule="evenodd" clip-path="url(#clipPath2)" stroke="none"/>
    </g>
    <g text-rendering="geometricPrecision" stroke-miterlimit="1.45" shape-rendering="geometricPrecision" transform="matrix(1,0,0,1,-280,-293)" stroke-linecap="butt">
      <path fill="none" d="M519 333 L592.8 333 L601 354 L592.8 375 L519 375 L527.2 354 Z" fill-rule="evenodd" clip-path="url(#clipPath2)"/>
      <text x="546.333" xml:space="preserve" y="358.1543" clip-path="url(#clipPath2)" font-family="sans-serif" stroke="none">M(d)</text>
    </g>
    <g fill="rgb(153,204,255)" text-rendering="geometricPrecision" shape-rendering="geometricPrecision" transform="matrix(1,0,0,1,-280,-293)" stroke="rgb(153,204,255)">
      <rect x="607" width="42" height="42" y="333" clip-path="url(#clipPath2)" stroke="none"/>
    </g>
    <g text-rendering="geometricPrecision" stroke-miterlimit="1.45" shape-rendering="geometricPrecision" transform="matrix(1,0,0,1,-280,-293)" stroke-linecap="butt">
      <rect fill="none" x="607" width="42" height="42" y="333" clip-path="url(#clipPath2)"/>
      <text x="624.1914" xml:space="preserve" y="358.1543" clip-path="url(#clipPath2)" font-family="sans-serif" stroke="none">p</text>
    </g>
    <g fill="rgb(204,255,204)" text-rendering="geometricPrecision" shape-rendering="geometricPrecision" transform="matrix(1,0,0,1,-280,-293)" stroke="rgb(204,255,204)">
      <rect x="471" width="42" height="42" y="333" clip-path="url(#clipPath2)" stroke="none"/>
    </g>
    <g text-rendering="geometricPrecision" stroke-miterlimit="1.45" shape-rendering="geometricPrecision" transform="matrix(1,0,0,1,-280,-293)" stroke-linecap="butt">
      <rect fill="none" x="471" width="42" height="42" y="333" clip-path="url(#clipPath2)"/>
      <text x="488.1914" xml:space="preserve" y="358.1543" clip-path="url(#clipPath2)" font-family="sans-serif" stroke="none">d</text>
    </g>
    <g fill="rgb(204,255,204)" text-rendering="geometricPrecision" shape-rendering="geometricPrecision" transform="matrix(1,0,0,1,-280,-293)" stroke="rgb(204,255,204)">
      <path d="M383 308 L456.8 308 L465 329 L456.8 350 L383 350 L391.2 329 Z" fill-rule="evenodd" clip-path="url(#clipPath2)" stroke="none"/>
    </g>
    <g text-rendering="geometricPrecision" stroke-miterlimit="1.45" shape-rendering="geometricPrecision" transform="matrix(1,0,0,1,-280,-293)" stroke-linecap="butt">
      <path fill="none" d="M383 308 L456.8 308 L465 329 L456.8 350 L383 350 L391.2 329 Z" fill-rule="evenodd" clip-path="url(#clipPath2)"/>
      <text x="401.4561" xml:space="preserve" y="333.1543" clip-path="url(#clipPath2)" font-family="sans-serif" stroke="none">I(d_big)</text>
    </g>
    <g fill="silver" text-rendering="geometricPrecision" shape-rendering="geometricPrecision" transform="matrix(1,0,0,1,-280,-293)" stroke="silver">
      <rect x="295" width="82" height="42" y="308" clip-path="url(#clipPath2)" stroke="none"/>
    </g>
    <g text-rendering="geometricPrecision" stroke-miterlimit="1.45" shape-rendering="geometricPrecision" transform="matrix(1,0,0,1,-280,-293)" stroke-linecap="butt">
      <rect fill="none" x="295" width="82" height="42" y="308" clip-path="url(#clipPath2)"/>
      <text x="319.9072" xml:space="preserve" y="333.1543" clip-path="url(#clipPath2)" font-family="sans-serif" stroke="none">d_big</text>
    </g>
    <g fill="silver" text-rendering="geometricPrecision" shape-rendering="geometricPrecision" transform="matrix(1,0,0,1,-280,-293)" stroke="silver">
      <rect x="295" width="82" height="42" y="360" clip-path="url(#clipPath2)" stroke="none"/>
    </g>
    <g text-rendering="geometricPrecision" stroke-miterlimit="1.45" shape-rendering="geometricPrecision" transform="matrix(1,0,0,1,-280,-293)" stroke-linecap="butt">
      <rect fill="none" x="295" width="82" height="42" y="360" clip-path="url(#clipPath2)"/>
      <text x="313.21" xml:space="preserve" y="385.1543" clip-path="url(#clipPath2)" font-family="sans-serif" stroke="none">d_small</text>
    </g>
    <g fill="rgb(204,255,204)" text-rendering="geometricPrecision" shape-rendering="geometricPrecision" transform="matrix(1,0,0,1,-280,-293)" stroke="rgb(204,255,204)">
      <path d="M383 360 L456.8 360 L465 381 L456.8 402 L383 402 L391.2 381 Z" fill-rule="evenodd" clip-path="url(#clipPath2)" stroke="none"/>
    </g>
    <g text-rendering="geometricPrecision" stroke-miterlimit="1.45" shape-rendering="geometricPrecision" transform="matrix(1,0,0,1,-280,-293)" stroke-linecap="butt">
      <path fill="none" d="M383 360 L456.8 360 L465 381 L456.8 402 L383 402 L391.2 381 Z" fill-rule="evenodd" clip-path="url(#clipPath2)"/>
      <text x="394.7588" xml:space="preserve" y="385.1543" clip-path="url(#clipPath2)" font-family="sans-serif" stroke="none">I(d_small)</text>
    </g>
  </g>
</svg>
