<?xml version="1.0" encoding="UTF-8"?><svg xmlns="http://www.w3.org/2000/svg" xmlns:xlink="http://www.w3.org/1999/xlink" fill-opacity="1" color-rendering="auto" color-interpolation="auto" text-rendering="auto" stroke="black" stroke-linecap="square" width="481" stroke-miterlimit="10" shape-rendering="auto" stroke-opacity="1" fill="black" stroke-dasharray="none" font-weight="normal" stroke-width="1" height="72" font-family="'Dialog'" font-style="normal" stroke-linejoin="miter" font-size="12px" stroke-dashoffset="0" image-rendering="auto">
  <!--Generated by ySVG 2.5-->
  <defs id="genericDefs"/>
  <g>
    <defs id="defs1">
      <clipPath clipPathUnits="userSpaceOnUse" id="clipPath1">
        <path d="M0 0 L481 0 L481 72 L0 72 L0 0 Z"/>
      </clipPath>
      <clipPath clipPathUnits="userSpaceOnUse" id="clipPath2">
        <path d="M294 293 L775 293 L775 365 L294 365 L294 293 Z"/>
      </clipPath>
    </defs>
    <g fill="white" text-rendering="geometricPrecision" shape-rendering="geometricPrecision" transform="translate(-294,-293)" stroke="white">
      <rect x="294" width="481" height="72" y="293" clip-path="url(#clipPath2)" stroke="none"/>
    </g>
    <g fill="rgb(204,153,255)" text-rendering="geometricPrecision" shape-rendering="geometricPrecision" transform="matrix(1,0,0,1,-294,-293)" stroke="rgb(204,153,255)">
      <path d="M629.5 308 L703.3 308 L711.5 329 L703.3 350 L629.5 350 L637.7 329 Z" fill-rule="evenodd" clip-path="url(#clipPath2)" stroke="none"/>
    </g>
    <g text-rendering="geometricPrecision" stroke-miterlimit="1.45" shape-rendering="geometricPrecision" transform="matrix(1,0,0,1,-294,-293)" stroke-linecap="butt">
      <path fill="none" d="M629.5 308 L703.3 308 L711.5 329 L703.3 350 L629.5 350 L637.7 329 Z" fill-rule="evenodd" clip-path="url(#clipPath2)"/>
      <text x="658.4766" xml:space="preserve" y="333.1543" clip-path="url(#clipPath2)" font-family="sans-serif" stroke="none">E(x)</text>
    </g>
    <g fill="rgb(204,153,255)" text-rendering="geometricPrecision" shape-rendering="geometricPrecision" transform="matrix(1,0,0,1,-294,-293)" stroke="rgb(204,153,255)">
      <rect x="717.5" width="42" height="42" y="308" clip-path="url(#clipPath2)" stroke="none"/>
    </g>
    <g text-rendering="geometricPrecision" stroke-miterlimit="1.45" shape-rendering="geometricPrecision" transform="matrix(1,0,0,1,-294,-293)" stroke-linecap="butt">
      <rect fill="none" x="717.5" width="42" height="42" y="308" clip-path="url(#clipPath2)"/>
      <text x="734.9492" xml:space="preserve" y="333.1543" clip-path="url(#clipPath2)" font-family="sans-serif" stroke="none">v</text>
    </g>
    <g fill="rgb(153,204,255)" text-rendering="geometricPrecision" shape-rendering="geometricPrecision" transform="matrix(1,0,0,1,-294,-293)" stroke="rgb(153,204,255)">
      <path d="M493.5 308 L567.3 308 L575.5 329 L567.3 350 L493.5 350 L501.7 329 Z" fill-rule="evenodd" clip-path="url(#clipPath2)" stroke="none"/>
    </g>
    <g text-rendering="geometricPrecision" stroke-miterlimit="1.45" shape-rendering="geometricPrecision" transform="matrix(1,0,0,1,-294,-293)" stroke-linecap="butt">
      <path fill="none" d="M493.5 308 L567.3 308 L575.5 329 L567.3 350 L493.5 350 L501.7 329 Z" fill-rule="evenodd" clip-path="url(#clipPath2)"/>
      <text x="520.833" xml:space="preserve" y="333.1543" clip-path="url(#clipPath2)" font-family="sans-serif" stroke="none">M(d)</text>
    </g>
    <g fill="rgb(153,204,255)" text-rendering="geometricPrecision" shape-rendering="geometricPrecision" transform="matrix(1,0,0,1,-294,-293)" stroke="rgb(153,204,255)">
      <rect x="581.5" width="42" height="42" y="308" clip-path="url(#clipPath2)" stroke="none"/>
    </g>
    <g text-rendering="geometricPrecision" stroke-miterlimit="1.45" shape-rendering="geometricPrecision" transform="matrix(1,0,0,1,-294,-293)" stroke-linecap="butt">
      <rect fill="none" x="581.5" width="42" height="42" y="308" clip-path="url(#clipPath2)"/>
      <text x="598.6914" xml:space="preserve" y="333.1543" clip-path="url(#clipPath2)" font-family="sans-serif" stroke="none">p</text>
    </g>
    <g fill="silver" text-rendering="geometricPrecision" shape-rendering="geometricPrecision" transform="matrix(1,0,0,1,-294,-293)" stroke="silver">
      <rect x="309.5" width="42" height="42" y="308" clip-path="url(#clipPath2)" stroke="none"/>
    </g>
    <g text-rendering="geometricPrecision" stroke-miterlimit="1.45" shape-rendering="geometricPrecision" transform="matrix(1,0,0,1,-294,-293)" stroke-linecap="butt">
      <rect fill="none" x="309.5" width="42" height="42" y="308" clip-path="url(#clipPath2)"/>
      <text x="312.6406" xml:space="preserve" y="333.1543" clip-path="url(#clipPath2)" font-family="sans-serif" stroke="none">d_raw</text>
    </g>
    <g fill="rgb(204,255,204)" text-rendering="geometricPrecision" shape-rendering="geometricPrecision" transform="matrix(1,0,0,1,-294,-293)" stroke="rgb(204,255,204)">
      <rect x="445.5" width="42" height="42" y="308" clip-path="url(#clipPath2)" stroke="none"/>
    </g>
    <g text-rendering="geometricPrecision" stroke-miterlimit="1.45" shape-rendering="geometricPrecision" transform="matrix(1,0,0,1,-294,-293)" stroke-linecap="butt">
      <rect fill="none" x="445.5" width="42" height="42" y="308" clip-path="url(#clipPath2)"/>
      <text x="462.6914" xml:space="preserve" y="333.1543" clip-path="url(#clipPath2)" font-family="sans-serif" stroke="none">d</text>
    </g>
    <g fill="rgb(204,255,204)" text-rendering="geometricPrecision" shape-rendering="geometricPrecision" transform="matrix(1,0,0,1,-294,-293)" stroke="rgb(204,255,204)">
      <path d="M357.5 308 L431.3 308 L439.5 329 L431.3 350 L357.5 350 L365.7 329 Z" fill-rule="evenodd" clip-path="url(#clipPath2)" stroke="none"/>
    </g>
    <g text-rendering="geometricPrecision" stroke-miterlimit="1.45" shape-rendering="geometricPrecision" transform="matrix(1,0,0,1,-294,-293)" stroke-linecap="butt">
      <path fill="none" d="M357.5 308 L431.3 308 L439.5 329 L431.3 350 L357.5 350 L365.7 329 Z" fill-rule="evenodd" clip-path="url(#clipPath2)"/>
      <text x="374.1895" xml:space="preserve" y="333.1543" clip-path="url(#clipPath2)" font-family="sans-serif" stroke="none">I(d_raw)</text>
    </g>
  </g>
</svg>
