<?xml version="1.0" encoding="UTF-8"?><svg xmlns="http://www.w3.org/2000/svg" xmlns:xlink="http://www.w3.org/1999/xlink" fill-opacity="1" color-rendering="auto" color-interpolation="auto" text-rendering="auto" stroke="black" stroke-linecap="square" width="344" stroke-miterlimit="10" shape-rendering="auto" stroke-opacity="1" fill="black" stroke-dasharray="none" font-weight="normal" stroke-width="1" height="72" font-family="'Dialog'" font-style="normal" stroke-linejoin="miter" font-size="12px" stroke-dashoffset="0" image-rendering="auto">
  <!--Generated by ySVG 2.5-->
  <defs id="genericDefs"/>
  <g>
    <defs id="defs1">
      <clipPath clipPathUnits="userSpaceOnUse" id="clipPath1">
        <path d="M0 0 L344 0 L344 72 L0 72 L0 0 Z"/>
      </clipPath>
      <clipPath clipPathUnits="userSpaceOnUse" id="clipPath2">
        <path d="M320 213 L664 213 L664 285 L320 285 L320 213 Z"/>
      </clipPath>
    </defs>
    <g fill="white" text-rendering="geometricPrecision" shape-rendering="geometricPrecision" transform="translate(-320,-213)" stroke="white">
      <rect x="320" width="344" height="72" y="213" clip-path="url(#clipPath2)" stroke="none"/>
    </g>
    <g fill="rgb(153,204,255)" text-rendering="geometricPrecision" shape-rendering="geometricPrecision" transform="matrix(1,0,0,1,-320,-213)" stroke="rgb(153,204,255)">
      <path d="M519 228 L592.8 228 L601 249 L592.8 270 L519 270 L527.2 249 Z" fill-rule="evenodd" clip-path="url(#clipPath2)" stroke="none"/>
    </g>
    <g text-rendering="geometricPrecision" stroke-miterlimit="1.45" shape-rendering="geometricPrecision" transform="matrix(1,0,0,1,-320,-213)" stroke-linecap="butt">
      <path fill="none" d="M519 228 L592.8 228 L601 249 L592.8 270 L519 270 L527.2 249 Z" fill-rule="evenodd" clip-path="url(#clipPath2)"/>
      <text x="546.333" xml:space="preserve" y="253.1543" clip-path="url(#clipPath2)" font-family="sans-serif" stroke="none">M(d)</text>
    </g>
    <g fill="rgb(153,204,255)" text-rendering="geometricPrecision" shape-rendering="geometricPrecision" transform="matrix(1,0,0,1,-320,-213)" stroke="rgb(153,204,255)">
      <rect x="607" width="42" height="42" y="228" clip-path="url(#clipPath2)" stroke="none"/>
    </g>
    <g text-rendering="geometricPrecision" stroke-miterlimit="1.45" shape-rendering="geometricPrecision" transform="matrix(1,0,0,1,-320,-213)" stroke-linecap="butt">
      <rect fill="none" x="607" width="42" height="42" y="228" clip-path="url(#clipPath2)"/>
      <text x="624.1914" xml:space="preserve" y="253.1543" clip-path="url(#clipPath2)" font-family="sans-serif" stroke="none">p</text>
    </g>
    <g fill="silver" text-rendering="geometricPrecision" shape-rendering="geometricPrecision" transform="matrix(1,0,0,1,-320,-213)" stroke="silver">
      <rect x="335" width="42" height="42" y="228" clip-path="url(#clipPath2)" stroke="none"/>
    </g>
    <g text-rendering="geometricPrecision" stroke-miterlimit="1.45" shape-rendering="geometricPrecision" transform="matrix(1,0,0,1,-320,-213)" stroke-linecap="butt">
      <rect fill="none" x="335" width="42" height="42" y="228" clip-path="url(#clipPath2)"/>
      <text x="338.1406" xml:space="preserve" y="253.1543" clip-path="url(#clipPath2)" font-family="sans-serif" stroke="none">d_raw</text>
    </g>
    <g fill="rgb(204,255,204)" text-rendering="geometricPrecision" shape-rendering="geometricPrecision" transform="matrix(1,0,0,1,-320,-213)" stroke="rgb(204,255,204)">
      <rect x="471" width="42" height="42" y="228" clip-path="url(#clipPath2)" stroke="none"/>
    </g>
    <g text-rendering="geometricPrecision" stroke-miterlimit="1.45" shape-rendering="geometricPrecision" transform="matrix(1,0,0,1,-320,-213)" stroke-linecap="butt">
      <rect fill="none" x="471" width="42" height="42" y="228" clip-path="url(#clipPath2)"/>
      <text x="488.1914" xml:space="preserve" y="253.1543" clip-path="url(#clipPath2)" font-family="sans-serif" stroke="none">d</text>
    </g>
    <g fill="rgb(204,255,204)" text-rendering="geometricPrecision" shape-rendering="geometricPrecision" transform="matrix(1,0,0,1,-320,-213)" stroke="rgb(204,255,204)">
      <path d="M383 228 L456.8 228 L465 249 L456.8 270 L383 270 L391.2 249 Z" fill-rule="evenodd" clip-path="url(#clipPath2)" stroke="none"/>
    </g>
    <g text-rendering="geometricPrecision" stroke-miterlimit="1.45" shape-rendering="geometricPrecision" transform="matrix(1,0,0,1,-320,-213)" stroke-linecap="butt">
      <path fill="none" d="M383 228 L456.8 228 L465 249 L456.8 270 L383 270 L391.2 249 Z" fill-rule="evenodd" clip-path="url(#clipPath2)"/>
      <text x="399.6895" xml:space="preserve" y="253.1543" clip-path="url(#clipPath2)" font-family="sans-serif" stroke="none">I(d_raw)</text>
    </g>
  </g>
</svg>
