<?xml version="1.0" encoding="UTF-8"?><svg xmlns="http://www.w3.org/2000/svg" xmlns:xlink="http://www.w3.org/1999/xlink" fill-opacity="1" color-rendering="auto" color-interpolation="auto" text-rendering="auto" stroke="black" stroke-linecap="square" width="174" stroke-miterlimit="10" shape-rendering="auto" stroke-opacity="1" fill="black" stroke-dasharray="none" font-weight="normal" stroke-width="1" height="72" font-family="'Dialog'" font-style="normal" stroke-linejoin="miter" font-size="12px" stroke-dashoffset="0" image-rendering="auto">
  <!--Generated by ySVG 2.5-->
  <defs id="genericDefs"/>
  <g>
    <defs id="defs1">
      <clipPath clipPathUnits="userSpaceOnUse" id="clipPath1">
        <path d="M0 0 L174 0 L174 72 L0 72 L0 0 Z"/>
      </clipPath>
      <clipPath clipPathUnits="userSpaceOnUse" id="clipPath2">
        <path d="M354 213 L528 213 L528 285 L354 285 L354 213 Z"/>
      </clipPath>
    </defs>
    <g fill="white" text-rendering="geometricPrecision" shape-rendering="geometricPrecision" transform="translate(-354,-213)" stroke="white">
      <rect x="354" width="174" height="72" y="213" clip-path="url(#clipPath2)" stroke="none"/>
    </g>
    <g fill="silver" text-rendering="geometricPrecision" shape-rendering="geometricPrecision" transform="matrix(1,0,0,1,-354,-213)" stroke="silver">
      <rect x="369" width="42" height="42" y="228" clip-path="url(#clipPath2)" stroke="none"/>
    </g>
    <g text-rendering="geometricPrecision" stroke-miterlimit="1.45" shape-rendering="geometricPrecision" transform="matrix(1,0,0,1,-354,-213)" stroke-linecap="butt">
      <rect fill="none" x="369" width="42" height="42" y="228" clip-path="url(#clipPath2)"/>
      <text x="372.1406" xml:space="preserve" y="253.1543" clip-path="url(#clipPath2)" font-family="sans-serif" stroke="none">d_raw</text>
    </g>
    <g fill="rgb(153,204,255)" text-rendering="geometricPrecision" shape-rendering="geometricPrecision" transform="matrix(1,0,0,1,-354,-213)" stroke="rgb(153,204,255)">
      <rect x="471" width="42" height="42" y="228" clip-path="url(#clipPath2)" stroke="none"/>
    </g>
    <g text-rendering="geometricPrecision" stroke-miterlimit="1.45" shape-rendering="geometricPrecision" transform="matrix(1,0,0,1,-354,-213)" stroke-linecap="butt">
      <rect fill="none" x="471" width="42" height="42" y="228" clip-path="url(#clipPath2)"/>
      <text x="488.1914" xml:space="preserve" y="253.1543" clip-path="url(#clipPath2)" font-family="sans-serif" stroke="none">d</text>
    </g>
    <g fill="rgb(153,204,255)" text-rendering="geometricPrecision" shape-rendering="geometricPrecision" transform="matrix(1,0,0,1,-354,-213)" stroke="rgb(153,204,255)">
      <path d="M420 228 L457.8 228 L462 249 L457.8 270 L420 270 L424.2 249 Z" fill-rule="evenodd" clip-path="url(#clipPath2)" stroke="none"/>
    </g>
    <g text-rendering="geometricPrecision" stroke-miterlimit="1.45" shape-rendering="geometricPrecision" transform="matrix(1,0,0,1,-354,-213)" stroke-linecap="butt">
      <path fill="none" d="M420 228 L457.8 228 L462 249 L457.8 270 L420 270 L424.2 249 Z" fill-rule="evenodd" clip-path="url(#clipPath2)"/>
      <text x="430.998" xml:space="preserve" y="253.1543" clip-path="url(#clipPath2)" font-family="sans-serif" stroke="none">I(x)</text>
    </g>
  </g>
</svg>
